<svg width="24" height="24" viewBox="0 0 24 24" fill="none" xmlns="http://www.w3.org/2000/svg">
<path d="M22.5011 12.2332C22.5011 11.3699 22.4296 10.7399 22.2749 10.0865H12.2154V13.9832H18.1201C18.0011 14.9515 17.3582 16.4099 15.9296 17.3898L15.9096 17.5203L19.0902 19.935L19.3106 19.9565C21.3343 18.1249 22.5011 15.4298 22.5011 12.2332Z" fill="#4285F4"/>
<path d="M12.2147 22.5C15.1075 22.5 17.536 21.5666 19.3099 19.9567L15.9289 17.3899C15.0242 18.0083 13.8099 18.4399 12.2147 18.4399C9.38138 18.4399 6.97664 16.6083 6.11942 14.0766L5.99377 14.0871L2.68652 16.5954L2.64326 16.7132C4.40514 20.1433 8.02419 22.5 12.2147 22.5Z" fill="#34A853"/>
<path d="M6.12004 14.0767C5.89386 13.4233 5.76295 12.7233 5.76295 12C5.76295 11.2766 5.89386 10.5766 6.10814 9.92331L6.10215 9.78417L2.75344 7.23553L2.64387 7.28661C1.91772 8.70996 1.50105 10.3083 1.50105 12C1.50105 13.6916 1.91772 15.2899 2.64387 16.7133L6.12004 14.0767Z" fill="#FBBC05"/>
<path d="M12.2147 5.55997C14.2266 5.55997 15.5837 6.41163 16.3576 7.12335L19.3814 4.23C17.5243 2.53834 15.1076 1.5 12.2147 1.5C8.02422 1.5 4.40515 3.85665 2.64326 7.28662L6.10754 9.92332C6.97667 7.39166 9.38142 5.55997 12.2147 5.55997Z" fill="#EB4335"/>
</svg>
