<svg width="32" height="32" viewBox="0 0 32 32" fill="none" xmlns="http://www.w3.org/2000/svg">
<path d="M27 7H5C4.46957 7 3.96086 7.21071 3.58579 7.58579C3.21071 7.96086 3 8.46957 3 9V23C3 23.5304 3.21071 24.0391 3.58579 24.4142C3.96086 24.7893 4.46957 25 5 25H27C27.5304 25 28.0391 24.7893 28.4142 24.4142C28.7893 24.0391 29 23.5304 29 23V9C29 8.46957 28.7893 7.96086 28.4142 7.58579C28.0391 7.21071 27.5304 7 27 7Z" stroke="#535358" stroke-width="2" stroke-linecap="round" stroke-linejoin="round"/>
<path d="M7 13L10 19.5L13 13M16.5 13V19.5M20.5 17.275H21.98C22.631 17.275 23.257 17 23.701 16.525C24.0669 16.1347 24.2879 15.6306 24.327 15.097C24.3661 14.5634 24.2211 14.0325 23.916 13.593C23.7875 13.41 23.6168 13.2605 23.4184 13.1573C23.22 13.0541 22.9997 13.0001 22.776 13H20.5V17.275ZM20.5 17.275V19.5" stroke="#535358" stroke-width="2" stroke-linecap="round" stroke-linejoin="round"/>
</svg>
