<svg width="17" height="20" viewBox="0 0 17 20" fill="none" xmlns="http://www.w3.org/2000/svg">
<path opacity="0.5" d="M9.8324 19.8013C12.9583 19.1747 17 16.926 17 11.1112C17 5.8196 13.1267 2.29593 10.3415 0.67685C9.7235 0.31757 9 0.79006 9 1.50492V3.3334C9 4.77526 8.3938 7.40711 6.70932 8.5018C5.84932 9.0607 4.92052 8.2242 4.816 7.20388L4.73017 6.36604C4.6304 5.39203 3.63841 4.80075 2.85996 5.3946C1.46147 6.46144 0 8.3296 0 11.1112C0 18.2223 5.28889 20.0001 7.9333 20.0001C8.0871 20.0001 8.2488 19.9955 8.4171 19.9858C8.863 19.9296 8.4171 20.085 9.8324 19.8013Z" fill="#182CD4"/>
<path d="M5 16.4442C5 19.064 7.1113 19.8742 8.4171 19.9858C8.863 19.9296 8.4171 20.085 9.8324 19.8013C10.871 19.4343 12 18.4922 12 16.4442C12 15.1465 11.1814 14.3459 10.5401 13.9711C10.3439 13.8564 10.1161 14.0008 10.0985 14.2273C10.0429 14.9454 9.3534 15.5174 8.8836 14.9714C8.4685 14.4889 8.2941 13.784 8.2941 13.3331V12.7439C8.2941 12.3887 7.9365 12.1533 7.631 12.3346C6.49507 13.0085 5 14.3949 5 16.4442Z" fill="#182CD4"/>
</svg>
