<svg xmlns="http://www.w3.org/2000/svg" width="34" height="46" viewBox="0 0 34 46" fill="none">
  <path d="M14.0992 27.307L2.5493 21.7899C1.19431 21.1426 0.516812 20.819 0.465437 20.2522C0.414062 19.6855 1.02232 19.2453 2.23884 18.365L26.1492 1.06199C26.7844 0.602369 27.1019 0.372561 27.2512 0.496996C27.4004 0.62143 27.2315 0.97514 26.8935 1.68256L19.1623 17.8675C19.0607 18.0802 19.0099 18.1865 19.0444 18.2842C19.079 18.3818 19.1853 18.4326 19.398 18.5342L30.9479 24.0513C32.3028 24.6986 32.9803 25.0222 33.0317 25.589C33.0831 26.1557 32.4748 26.5959 31.2583 27.4762L7.34791 44.7792C6.71278 45.2388 6.39522 45.4686 6.24598 45.3442C6.09674 45.2198 6.26569 44.8661 6.60361 44.1586L14.3348 27.9737C14.4364 27.761 14.4872 27.6547 14.4527 27.557C14.4182 27.4594 14.3118 27.4086 14.0992 27.307Z" fill="#182CD4"/>
</svg>