<svg width="25" height="25" viewBox="0 0 25 25" fill="none" xmlns="http://www.w3.org/2000/svg">
<path d="M11 19C11 19.3978 10.842 19.7794 10.5607 20.0607C10.2794 20.342 9.89782 20.5 9.5 20.5H7V23C7 23.3978 6.84196 23.7794 6.56066 24.0607C6.27936 24.342 5.89782 24.5 5.5 24.5C5.10218 24.5 4.72064 24.342 4.43934 24.0607C4.15804 23.7794 4 23.3978 4 23V20.5H1.5C1.10218 20.5 0.720644 20.342 0.43934 20.0607C0.158035 19.7794 0 19.3978 0 19C0 18.6022 0.158035 18.2206 0.43934 17.9393C0.720644 17.658 1.10218 17.5 1.5 17.5H4V15C4 14.6022 4.15804 14.2206 4.43934 13.9393C4.72064 13.658 5.10218 13.5 5.5 13.5C5.89782 13.5 6.27936 13.658 6.56066 13.9393C6.84196 14.2206 7 14.6022 7 15V17.5H9.5C9.89782 17.5 10.2794 17.658 10.5607 17.9393C10.842 18.2206 11 18.6022 11 19ZM9.5 3.5H1.5C1.10218 3.5 0.720644 3.65804 0.43934 3.93934C0.158035 4.22065 0 4.60218 0 5C0 5.39783 0.158035 5.77936 0.43934 6.06066C0.720644 6.34197 1.10218 6.5 1.5 6.5H9.5C9.89782 6.5 10.2794 6.34197 10.5607 6.06066C10.842 5.77936 11 5.39783 11 5C11 4.60218 10.842 4.22065 10.5607 3.93934C10.2794 3.65804 9.89782 3.5 9.5 3.5ZM15.5 18.0083H23.5C23.8978 18.0083 24.2794 17.8503 24.5607 17.569C24.842 17.2877 25 16.9061 25 16.5083C25 16.1105 24.842 15.7289 24.5607 15.4476C24.2794 15.1663 23.8978 15.0083 23.5 15.0083H15.5C15.1022 15.0083 14.7206 15.1663 14.4393 15.4476C14.158 15.7289 14 16.1105 14 16.5083C14 16.9061 14.158 17.2877 14.4393 17.569C14.7206 17.8503 15.1022 18.0083 15.5 18.0083ZM23.5 19.9917H15.5C15.1022 19.9917 14.7206 20.1497 14.4393 20.431C14.158 20.7123 14 21.0939 14 21.4917C14 21.8895 14.158 22.2711 14.4393 22.5524C14.7206 22.8337 15.1022 22.9917 15.5 22.9917H23.5C23.8978 22.9917 24.2794 22.8337 24.5607 22.5524C24.842 22.2711 25 21.8895 25 21.4917C25 21.0939 24.842 20.7123 24.5607 20.431C24.2794 20.1497 23.8978 19.9917 23.5 19.9917ZM15.4393 9.06067C15.7206 9.34197 16.1022 9.5 16.5 9.5C16.8978 9.5 17.2794 9.34197 17.5607 9.06067L19.5 7.12134L21.4393 9.06067C21.7207 9.34165 22.1021 9.49941 22.4998 9.49927C22.8974 9.49913 23.2787 9.34111 23.5599 9.05993C23.8411 8.77875 23.9991 8.39743 23.9993 7.99978C23.9994 7.60214 23.8417 7.22071 23.5607 6.93933L21.6213 5L23.5607 3.06067C23.8417 2.7793 23.9994 2.39787 23.9993 2.00022C23.9991 1.60257 23.8411 1.22125 23.5599 0.940076C23.2787 0.658898 22.8974 0.500872 22.4998 0.500733C22.1021 0.500593 21.7207 0.658352 21.4393 0.939333L19.5 2.87866L17.5607 0.939333C17.2793 0.658352 16.8979 0.500593 16.5002 0.500733C16.1026 0.500872 15.7213 0.658898 15.4401 0.940076C15.1589 1.22125 15.0009 1.60257 15.0007 2.00022C15.0006 2.39787 15.1583 2.7793 15.4393 3.06067L17.3787 5L15.4393 6.93933C15.158 7.22065 15 7.60218 15 8C15 8.39782 15.158 8.77936 15.4393 9.06067Z" fill="black"/>
</svg>
