<svg width="21" height="22" viewBox="0 0 21 22" fill="none" xmlns="http://www.w3.org/2000/svg">
<path d="M10.4282 14C12.0851 14 13.4282 12.6569 13.4282 11C13.4282 9.34315 12.0851 8 10.4282 8C8.77137 8 7.42822 9.34315 7.42822 11C7.42822 12.6569 8.77137 14 10.4282 14Z" stroke="#1C274C" stroke-width="1.5"/>
<path d="M2.08944 9.6392C2.56199 9.9361 2.86604 10.4419 2.86604 10.9999C2.86603 11.558 2.56198 12.0638 2.08944 12.3607C1.76788 12.5627 1.5607 12.7242 1.4133 12.9163C1.09039 13.3372 0.94788 13.869 1.01712 14.3949C1.06904 14.7893 1.30201 15.1928 1.76795 15.9999C2.2339 16.8069 2.46687 17.2104 2.78248 17.4526C3.2033 17.7755 3.73516 17.918 4.26106 17.8488C4.50109 17.8172 4.7445 17.7185 5.08018 17.5411C5.57366 17.2803 6.1638 17.2699 6.64717 17.549C7.13049 17.8281 7.41649 18.3443 7.43734 18.902C7.45154 19.2815 7.4878 19.5417 7.58046 19.7654C7.78345 20.2554 8.1728 20.6448 8.66282 20.8478C9.03042 21 9.49632 21 10.4282 21C11.3601 21 11.826 21 12.1936 20.8478C12.6836 20.6448 13.073 20.2554 13.276 19.7654C13.3686 19.5417 13.4049 19.2815 13.4191 18.9021C13.4399 18.3443 13.7259 17.8281 14.2093 17.549C14.6926 17.27 15.2827 17.2804 15.7761 17.5412C16.1119 17.7186 16.3553 17.8173 16.5953 17.8489C17.1212 17.9182 17.6531 17.7756 18.0739 17.4527C18.3895 17.2106 18.6225 16.807 19.0885 16C19.2959 15.6407 19.4572 15.3614 19.5768 15.1272M18.7669 12.3608C18.2944 12.0639 17.9904 11.5581 17.9903 11.0001C17.9903 10.442 18.2944 9.9361 18.7669 9.6392C19.0885 9.4372 19.2956 9.2757 19.443 9.0836C19.7659 8.66278 19.9084 8.13092 19.8392 7.60502C19.7873 7.2106 19.5543 6.80708 19.0883 6.00005C18.6224 5.19301 18.3894 4.7895 18.0738 4.54732C17.653 4.22441 17.1211 4.0819 16.5952 4.15113C16.3552 4.18274 16.1118 4.2814 15.7761 4.45883C15.2826 4.71964 14.6925 4.73004 14.2092 4.45096C13.7259 4.1719 13.4399 3.6557 13.4191 3.09803C13.4049 2.71852 13.3686 2.45835 13.276 2.23463C13.073 1.74458 12.6836 1.35523 12.1936 1.15224C11.826 1 11.3601 1 10.4282 1C9.49632 1 9.03042 1 8.66282 1.15224C8.1728 1.35523 7.78345 1.74458 7.58046 2.23463C7.4878 2.45833 7.45154 2.71848 7.43734 3.09794C7.41648 3.65566 7.13047 4.17191 6.64713 4.45096C6.16379 4.73002 5.5737 4.71959 5.08027 4.4588C4.74455 4.28136 4.50112 4.18269 4.26107 4.15108C3.73517 4.08185 3.20331 4.22436 2.78249 4.54727C2.46688 4.78945 2.23391 5.19297 1.76796 6C1.56053 6.35929 1.39927 6.63859 1.2796 6.87273" stroke="#1C274C" stroke-width="1.5" stroke-linecap="round"/>
</svg>
