<svg width="102" height="96" viewBox="0 0 102 96" fill="none" xmlns="http://www.w3.org/2000/svg">
<path d="M48.0992 52.307L36.5493 46.7899C35.1943 46.1426 34.5168 45.819 34.4654 45.2522C34.4141 44.6855 35.0223 44.2453 36.2388 43.365L60.1492 26.062C60.7844 25.6024 61.1019 25.3726 61.2512 25.497C61.4004 25.6214 61.2315 25.9751 60.8935 26.6826L53.1623 42.8675C53.0607 43.0802 53.0099 43.1865 53.0444 43.2842C53.079 43.3818 53.1853 43.4326 53.398 43.5342L64.9479 49.0513C66.3028 49.6986 66.9803 50.0222 67.0317 50.589C67.0831 51.1557 66.4748 51.5959 65.2583 52.4762L41.3479 69.7792C40.7128 70.2388 40.3952 70.4686 40.246 70.3442C40.0967 70.2198 40.2657 69.8661 40.6036 69.1586L48.3348 52.9737C48.4364 52.761 48.4872 52.6547 48.4527 52.557C48.4182 52.4594 48.3118 52.4086 48.0992 52.307Z" fill="#222222"/>
</svg>
